<?xml version="1.0" encoding="UTF-8" standalone="no"?>
<!-- Generator: Adobe Illustrator 19.0.0, SVG Export Plug-In . SVG Version: 6.00 Build 0)  -->

<svg
   xmlns:osb="http://www.openswatchbook.org/uri/2009/osb"
   xmlns:dc="http://purl.org/dc/elements/1.1/"
   xmlns:cc="http://creativecommons.org/ns#"
   xmlns:rdf="http://www.w3.org/1999/02/22-rdf-syntax-ns#"
   xmlns:svg="http://www.w3.org/2000/svg"
   xmlns="http://www.w3.org/2000/svg"
   xmlns:sodipodi="http://sodipodi.sourceforge.net/DTD/sodipodi-0.dtd"
   xmlns:inkscape="http://www.inkscape.org/namespaces/inkscape"
   version="1.1"
   id="Capa_1"
   x="0px"
   y="0px"
   viewBox="0 0 512 512"
   xml:space="preserve"
   sodipodi:docname="new_game.svg"
   inkscape:version="0.92.1 r15371"
   width="512"
   height="512"><metadata
     id="metadata77"><rdf:RDF><cc:Work
         rdf:about=""><dc:format>image/svg+xml</dc:format><dc:type
           rdf:resource="http://purl.org/dc/dcmitype/StillImage" /><dc:title></dc:title></cc:Work></rdf:RDF></metadata><defs
     id="defs75"><linearGradient
       id="linearGradient4883"
       osb:paint="solid"><stop
         style="stop-color:#000000;stop-opacity:1;"
         offset="0"
         id="stop4881" /></linearGradient></defs><sodipodi:namedview
     pagecolor="#ffffff"
     bordercolor="#666666"
     borderopacity="1"
     objecttolerance="10"
     gridtolerance="10"
     guidetolerance="10"
     inkscape:pageopacity="0"
     inkscape:pageshadow="2"
     inkscape:window-width="1920"
     inkscape:window-height="1048"
     id="namedview73"
     showgrid="false"
     inkscape:zoom="0.59385921"
     inkscape:cx="-70.007873"
     inkscape:cy="191.78963"
     inkscape:window-x="1920"
     inkscape:window-y="0"
     inkscape:window-maximized="1"
     inkscape:current-layer="Capa_1"
     fit-margin-top="0"
     fit-margin-left="0"
     fit-margin-right="0"
     fit-margin-bottom="0"
     inkscape:measure-start="-458.021,395.717"
     inkscape:measure-end="-230.694,146.499" /><g
     id="g42"
     transform="translate(218.54405,-194.53554)" /><g
     id="g44"
     transform="translate(218.54405,-194.53554)" /><g
     id="g46"
     transform="translate(218.54405,-194.53554)" /><g
     id="g48"
     transform="translate(218.54405,-194.53554)" /><g
     id="g50"
     transform="translate(218.54405,-194.53554)" /><g
     id="g52"
     transform="translate(218.54405,-194.53554)" /><g
     id="g54"
     transform="translate(218.54405,-194.53554)" /><g
     id="g56"
     transform="translate(218.54405,-194.53554)" /><g
     id="g58"
     transform="translate(218.54405,-194.53554)" /><g
     id="g60"
     transform="translate(218.54405,-194.53554)" /><g
     id="g62"
     transform="translate(218.54405,-194.53554)" /><g
     id="g64"
     transform="translate(218.54405,-194.53554)" /><g
     id="g66"
     transform="translate(218.54405,-194.53554)" /><g
     id="g68"
     transform="translate(218.54405,-194.53554)" /><g
     id="g70"
     transform="translate(218.54405,-194.53554)" /><g
     id="g5166"
     transform="rotate(21.96188,139.70715,308.19302)"><path
       inkscape:connector-curvature="0"
       id="path5113"
       d="m 239.48242,32.935547 -4.17969,0.05273 -0.44335,0.0059 -0.44141,0.01563 -4.15235,0.158203 -0.44335,0.01758 -0.44141,0.02734 -4.125,0.261718 -0.44141,0.02734 -0.4414,0.03906 -4.09571,0.363281 -0.4414,0.03906 -0.43946,0.05078 -4.0664,0.464843 -0.4375,0.05078 -0.4375,0.06055 -4.03516,0.564454 -0.43554,0.06055 -0.43555,0.07227 -4.00195,0.664063 -0.4336,0.07227 -0.43164,0.08203 -3.96875,0.759765 -0.43164,0.08203 -0.42773,0.09375 -3.93555,0.857422 -0.42578,0.0918 -0.42578,0.103516 -3.89844,0.951172 -0.42383,0.103515 -0.41992,0.115235 -3.86133,1.044921 -0.41992,0.113282 -0.41797,0.123047 -3.82031,1.136718 -0.41602,0.125 -0.41406,0.132813 -3.78125,1.228516 -0.41016,0.132812 -0.4082,0.144531 -3.74023,1.31836 -0.40821,0.142578 -0.40234,0.152343 -3.69922,1.40625 -0.40039,0.152344 -0.39844,0.164063 -3.65429,1.492187 -0.39649,0.16211 -0.39453,0.171875 -3.60742,1.578125 -0.39258,0.171875 -0.38672,0.18164 -3.5625,1.66211 -0.38672,0.18164 -0.38281,0.189453 -3.51367,1.746094 -0.38086,0.189453 -0.37696,0.199219 -3.46484,1.828125 -0.375,0.197266 -0.37109,0.207031 -3.41602,1.910156 -0.36914,0.207031 -0.36328,0.214844 -3.36523,1.988281 -0.36329,0.214844 -0.35742,0.22461 -3.3125,2.066406 -0.35742,0.222656 -0.35156,0.232422 -3.25781,2.144531 -0.34961,0.230469 -0.34571,0.240234 -3.20312,2.21875 -0.34375,0.240235 -0.33985,0.246093 -3.14453,2.294922 -0.33984,0.246094 -0.33203,0.255859 -3.08789,2.367188 -0.33203,0.253906 -0.32618,0.263672 -3.02734,2.4375 -0.32617,0.263672 -0.31836,0.269531 -2.96875,2.509766 -0.31836,0.269531 -0.3125,0.277344 -2.90625,2.578125 -0.3125,0.277344 -0.30664,0.285156 -2.8418,2.646484 -0.30664,0.283203 -0.29883,0.292969 -2.77929,2.712891 -0.29883,0.291015 -0.29102,0.298828 -2.712888,2.779297 -0.291015,0.298828 -0.285156,0.304688 -2.646485,2.84375 -0.285156,0.304687 -0.277344,0.3125 -2.578125,2.906243 -0.277343,0.3125 -0.269532,0.32032 -2.509765,2.96679 -0.269532,0.32032 -0.261718,0.32421 -2.439453,3.0293 -0.263672,0.32617 -0.253907,0.33203 -2.367187,3.0879 -0.25586,0.33203 -0.246093,0.33789 -2.294922,3.14648 -0.246094,0.33789 -0.240234,0.34571 -2.21875,3.20117 -0.240235,0.3457 -0.230468,0.35156 -2.144532,3.25782 -0.230468,0.35156 -0.22461,0.35742 -2.066406,3.31055 -0.222656,0.35937 -0.214844,0.36328 -1.990234,3.36328 -0.214844,0.36524 -0.207031,0.36914 -1.908203,3.41601 -0.207032,0.36915 -0.199218,0.375 -1.828126,3.46679 -0.199218,0.37696 -0.1875,0.38086 -1.748047,3.51367 -0.189453,0.38281 -0.179688,0.38672 -1.664062,3.56054 -0.181641,0.38868 -0.169922,0.39062 -1.580078,3.60938 -0.171875,0.39258 -0.162109,0.39843 -1.492188,3.65235 -0.162109,0.39843 -0.154297,0.40235 -1.404297,3.69726 -0.154297,0.4043 -0.142578,0.40625 -1.318359,3.74023 -0.142578,0.40821 -0.134766,0.41211 -1.226562,3.78125 -0.134766,0.41406 -0.123047,0.41406 -1.136719,3.82227 -0.125,0.41797 -0.113281,0.41992 -1.044922,3.85937 -0.113281,0.42188 -0.103516,0.42383 -0.951172,3.89843 -0.103515,0.42383 -0.09375,0.42774 -0.857422,3.93554 -0.0918,0.42774 -0.08398,0.42969 -0.759766,3.9707 -0.08203,0.43164 -0.07227,0.43359 -0.664062,4.00196 -0.07031,0.43554 -0.0625,0.43555 -0.564453,4.03516 -0.06055,0.4375 -0.05078,0.4375 -0.464844,4.0664 -0.04883,0.43946 -0.03906,0.43945 -0.365234,4.09765 -0.03906,0.43946 -0.02734,0.4414 -0.261719,4.125 -0.02734,0.44336 -0.01758,0.44141 -0.158203,4.15234 -0.01563,0.44336 -0.0059,0.44336 -0.05273,4.17774 -0.0059,0.44336 0.0059,0.44335 0.05273,4.17774 0.0059,0.44336 0.01563,0.44336 0.158203,4.15234 0.01758,0.44336 0.02734,0.44141 0.261719,4.125 0.02734,0.4414 0.03906,0.44141 0.365234,4.0957 0.03906,0.43946 0.04883,0.43945 0.464844,4.06641 0.05078,0.43945 0.06055,0.43555 0.564453,4.0371 0.0625,0.43555 0.07031,0.4336 0.664062,4.0039 0.07227,0.4336 0.08203,0.43164 0.759766,3.96875 0.08398,0.43164 0.0918,0.42773 0.857422,3.93359 0.09375,0.42774 0.103515,0.42578 0.951172,3.89648 0.103516,0.42383 0.113281,0.42188 1.044922,3.86133 0.113281,0.41992 0.125,0.41601 1.136719,3.82227 0.123047,0.41602 0.134766,0.4121 1.226562,3.78125 0.134766,0.41211 0.142578,0.40821 1.318359,3.74023 0.142578,0.40625 0.154297,0.4043 1.404297,3.69726 0.154297,0.40235 0.162109,0.39844 1.492188,3.65429 0.162109,0.39649 0.171875,0.39257 1.580078,3.60938 0.169922,0.39258 0.181641,0.38672 1.664062,3.5625 0.179688,0.38671 0.189453,0.38086 1.748047,3.51563 0.1875,0.38086 0.199218,0.375 1.828126,3.4668 0.199218,0.375 0.207032,0.37109 1.908203,3.41406 0.207031,0.3711 0.214844,0.36328 1.990234,3.36328 0.214844,0.36523 0.222656,0.35742 2.066406,3.31055 0.22461,0.35742 0.230468,0.35352 2.144532,3.25586 0.230468,0.35156 0.240235,0.3457 2.21875,3.20118 0.240234,0.3457 0.246094,0.33984 2.294922,3.14453 0.246093,0.33789 0.25586,0.33399 2.367187,3.08594 0.253907,0.33398 0.263672,0.32422 2.439453,3.0293 0.261718,0.32617 0.269532,0.31836 2.509765,2.96875 0.269532,0.31836 0.277343,0.3125 2.578125,2.90625 0.277344,0.3125 0.285156,0.30468 2.646485,2.84375 0.285156,0.30665 0.291015,0.29687 2.712888,2.7793 0.29102,0.29883 0.29883,0.29101 2.77929,2.71484 0.29883,0.29102 0.30664,0.28516 2.8418,2.64648 0.30664,0.2832 0.3125,0.27735 2.90625,2.58008 0.3125,0.27734 0.31836,0.26953 2.96875,2.50977 0.31836,0.26953 0.32617,0.26172 3.02734,2.43945 0.32618,0.26172 0.33203,0.25586 3.08789,2.36718 0.33203,0.25391 0.33984,0.24805 3.14453,2.29297 0.33985,0.24804 0.34375,0.23829 3.20312,2.2207 0.34571,0.23828 0.34961,0.23242 3.25781,2.14258 0.35156,0.23242 0.35742,0.22266 3.3125,2.06836 0.35742,0.22265 0.36329,0.21485 3.36523,1.98828 0.36328,0.2168 0.36914,0.20507 3.41602,1.91016 0.37109,0.20703 0.375,0.19727 3.46484,1.83007 0.37696,0.19727 0.38086,0.18945 3.51367,1.7461 0.38281,0.1914 0.38672,0.17969 3.5625,1.66406 0.38672,0.17969 0.39258,0.17188 3.60742,1.57812 0.39453,0.17188 0.39649,0.1621 3.65429,1.49415 0.39844,0.16211 0.40039,0.15234 3.69922,1.40625 0.40234,0.1543 0.40821,0.14257 3.74023,1.31641 0.4082,0.14453 0.41016,0.13281 3.78125,1.22852 0.41406,0.13477 0.41602,0.12304 3.82031,1.13672 0.41797,0.125 0.41992,0.11328 3.86133,1.04492 0.41992,0.11328 0.42383,0.10352 3.89844,0.95117 0.42578,0.10352 0.42578,0.0937 3.93555,0.85547 0.42773,0.0937 0.43164,0.082 3.96875,0.76172 0.43164,0.082 0.4336,0.0723 4.00195,0.66211 0.43555,0.0723 0.43554,0.0605 4.03516,0.56445 0.4375,0.0625 0.4375,0.0488 4.0664,0.46484 0.43946,0.0508 0.4414,0.0391 4.09571,0.36329 0.4414,0.0391 0.44141,0.0293 4.125,0.26171 0.44141,0.0274 0.44335,0.0156 4.15235,0.15821 0.44141,0.0176 0.44335,0.006 4.17969,0.0527 0.44141,0.006 0.44336,-0.006 4.17969,-0.0527 0.4414,-0.006 0.44336,-0.0176 4.15234,-0.15821 0.44336,-0.0156 0.44141,-0.0274 4.125,-0.26171 0.44141,-0.0293 0.4414,-0.0391 4.09571,-0.36329 0.4414,-0.0391 0.4375,-0.0508 4.06836,-0.46484 0.4375,-0.0488 0.4375,-0.0625 4.03516,-0.56445 0.43554,-0.0605 0.43555,-0.0723 4.00195,-0.66211 0.4336,-0.0723 0.43164,-0.082 3.96875,-0.76172 0.43164,-0.082 0.42773,-0.0937 3.93555,-0.85547 0.42578,-0.0937 0.42578,-0.10352 3.89844,-0.95117 0.42383,-0.10352 0.41992,-0.11328 3.86133,-1.04492 0.41992,-0.11328 0.41602,-0.125 3.82226,-1.13672 0.41602,-0.12304 0.41211,-0.13477 3.7832,-1.22852 0.41016,-0.13281 0.4082,-0.14453 3.74023,-1.31641 0.40821,-0.14257 0.40234,-0.1543 3.69727,-1.40625 0.40234,-0.15234 0.39844,-0.16211 3.65429,-1.49415 0.39649,-0.1621 0.39258,-0.17188 3.60937,-1.57812 0.39258,-0.17188 0.38672,-0.17969 3.5625,-1.66406 0.38672,-0.17969 0.38281,-0.1914 3.51367,-1.7461 0.38086,-0.18945 0.37695,-0.19727 3.46485,-1.83007 0.375,-0.19727 0.37109,-0.20703 3.41602,-1.91016 0.36914,-0.20507 0.36328,-0.2168 3.36523,-1.98828 0.36329,-0.21485 0.35742,-0.22265 3.3125,-2.06836 0.35742,-0.22266 0.35156,-0.23242 3.25586,-2.14258 0.35156,-0.23242 0.34571,-0.23828 3.20312,-2.2207 0.34375,-0.23829 0.33984,-0.24804 3.14454,-2.29297 0.33984,-0.24805 0.33203,-0.25391 3.08789,-2.36718 0.33203,-0.25586 0.32617,-0.26172 3.02735,-2.43945 0.32617,-0.26172 0.31836,-0.26953 2.96875,-2.50977 0.31836,-0.26953 0.3125,-0.27734 2.90625,-2.58008 0.3125,-0.27735 0.30664,-0.2832 2.8418,-2.64648 0.30664,-0.28516 0.29883,-0.29102 2.77929,-2.71484 0.29688,-0.29101 0.29297,-0.29883 2.71289,-2.7793 0.29101,-0.29687 0.28516,-0.30665 2.64648,-2.84375 0.28516,-0.30468 0.27734,-0.3125 2.57813,-2.90625 0.27734,-0.3125 0.26953,-0.31836 2.50977,-2.96875 0.26953,-0.31836 0.26172,-0.32617 2.43945,-3.0293 0.26367,-0.32422 0.25391,-0.33398 2.36719,-3.08594 0.2539,-0.33399 0.24805,-0.33789 2.29297,-3.14453 0.24805,-0.33984 0.24023,-0.3457 2.21875,-3.20118 0.24024,-0.3457 0.23046,-0.35156 2.14454,-3.25586 0.23046,-0.35352 0.22461,-0.35742 2.06641,-3.31055 0.22266,-0.35742 0.21484,-0.36523 1.99023,-3.36328 0.21485,-0.36328 0.20703,-0.3711 1.9082,-3.41406 0.20703,-0.37109 0.19922,-0.375 1.82813,-3.4668 0.19726,-0.375 0.18946,-0.38086 1.74804,-3.51563 0.18946,-0.38086 0.17968,-0.38671 1.66407,-3.5625 0.17968,-0.38672 0.17188,-0.39258 1.58008,-3.60938 0.17187,-0.39257 0.16211,-0.39649 1.49219,-3.65429 0.16211,-0.39844 0.15429,-0.40235 1.4043,-3.69726 0.1543,-0.4043 0.14258,-0.40625 1.31836,-3.74023 0.14257,-0.40821 0.13477,-0.41211 1.22656,-3.78125 0.13477,-0.4121 0.12304,-0.41602 1.13672,-3.82227 0.125,-0.41601 0.11328,-0.41992 1.04493,-3.86133 0.11328,-0.42188 0.10351,-0.42383 0.95118,-3.89648 0.10351,-0.42578 0.0937,-0.42774 0.85547,-3.93359 0.0937,-0.42773 0.082,-0.43164 0.76172,-3.96875 0.082,-0.43164 0.0723,-0.4336 0.66211,-4.0039 0.0723,-0.4336 0.0625,-0.43555 0.56445,-4.0371 0.0605,-0.43555 0.0508,-0.43945 0.46485,-4.06641 0.0488,-0.43945 0.0391,-0.43946 0.36523,-4.0957 0.0391,-0.44141 0.0274,-0.4414 0.26172,-4.125 0.0273,-0.44141 0.0176,-0.44336 0.1582,-4.15234 0.0156,-0.44336 0.006,-0.44336 0.0527,-4.17774 -0.91602,-8.4082 -2.90429,-7.9414 -4.72657,-7.01368 -6.26953,-5.67578 -7.44726,-4.00586 -8.19141,-2.10156 -8.45703,-0.0762 -8.22851,1.95312 -7.51954,3.8711 -6.37109,5.5625 -4.85156,6.92773 -3.04688,7.88867 -1.06445,8.13282 -0.0469,3.70507 -0.125,3.30664 -0.20312,3.20899 -0.28906,3.26562 -0.35352,3.0918 -0.45117,3.22852 -0.51953,3.13867 -0.5957,3.10547 -0.67188,3.08984 -0.73438,3.01172 -0.83007,3.0625 -0.88672,2.98242 -0.96289,2.9668 -1.02735,2.91406 -1.08007,2.8418 -1.19141,2.91601 -1.21875,2.78907 -1.30274,2.79297 -1.37109,2.75585 -1.45312,2.75586 -1.49414,2.66993 -1.51954,2.57031 -1.65625,2.65625 -1.66406,2.52734 -1.72851,2.49414 -1.81055,2.48242 -1.87109,2.44141 -1.9336,2.40039 -1.95703,2.3125 -1.9707,2.22266 -2.14063,2.29883 -2.07226,2.125 -2.20313,2.15234 -2.29492,2.13477 -2.22656,1.9746 -2.3086,1.95313 -2.39648,1.92969 -2.44922,1.8789 -2.40039,1.75 -2.54297,1.76563 -2.56055,1.68555 -2.56445,1.60156 -2.66211,1.57617 -2.68945,1.50195 -2.75977,1.45703 -2.69726,1.33985 -2.76563,1.29101 -2.85547,1.25 -2.875,1.17578 -2.875,1.0918 -2.92187,1.0293 -2.96094,0.96289 -2.96484,0.88086 -3.06055,0.82812 -3.02148,0.73828 -3.09766,0.67383 -3.11328,0.59766 -3.13086,0.51758 -3.15234,0.43945 -3.24415,0.37109 -3.11718,0.27735 -3.28516,0.20898 -3.31055,0.125 -3.25195,0.041 -3.25586,-0.041 -3.30469,-0.125 -3.28906,-0.20898 -3.11719,-0.27735 -3.24414,-0.37109 -3.16406,-0.44141 -3.11914,-0.51562 -3.12891,-0.60156 -3.0957,-0.67383 -3.00586,-0.73242 -3.0664,-0.83008 -2.94336,-0.87696 -2.95703,-0.95898 -2.94336,-1.03711 -2.87696,-1.09375 -2.84961,-1.16406 -2.8789,-1.25977 -2.76563,-1.29101 -2.70117,-1.3418 -2.73047,-1.43945 -2.68555,-1.5 -2.6914,-1.59375 -2.56836,-1.60352 -2.52344,-1.66015 -2.57617,-1.78907 -2.43555,-1.77539 -2.41015,-1.84961 -2.40039,-1.93359 -2.3086,-1.95313 -2.22656,-1.9746 -2.29492,-2.13477 -2.20313,-2.15234 -2.07226,-2.125 -2.10742,-2.26368 -2.00782,-2.26171 -1.99023,-2.35157 -1.89258,-2.35156 -1.875,-2.44727 -1.81055,-2.48242 -1.72851,-2.49414 -1.66407,-2.52734 -1.65624,-2.65625 -1.51954,-2.57031 -1.49414,-2.66993 -1.45312,-2.75586 -1.3711,-2.75585 -1.30273,-2.79297 -1.21875,-2.78907 -1.19141,-2.91601 -1.08007,-2.8418 -1.02735,-2.91406 -0.96289,-2.9668 -0.88672,-2.98242 -0.83008,-3.0625 -0.73437,-3.01172 -0.67188,-3.08984 -0.59765,-3.11328 -0.50781,-3.07032 -0.45313,-3.2207 -0.36133,-3.16016 -0.28906,-3.26562 -0.20313,-3.20899 -0.125,-3.30664 -0.041,-3.26171 0.041,-3.26172 0.125,-3.30664 0.20313,-3.20313 0.28906,-3.26367 0.36133,-3.16016 0.45313,-3.22851 0.50781,-3.06836 0.59765,-3.11524 0.67579,-3.10351 0.73046,-2.99805 0.83008,-3.0625 0.88672,-2.98242 0.95508,-2.94141 1.03516,-2.9414 1.08007,-2.8418 1.17969,-2.88867 1.23242,-2.81836 1.30078,-2.78906 1.35547,-2.72657 1.47071,-2.78906 1.47265,-2.63476 1.53907,-2.60352 1.65624,-2.65234 1.66407,-2.5293 1.75,-2.52344 1.81445,-2.48633 1.84961,-2.41406 1.89063,-2.3457 1.99218,-2.35547 2.01172,-2.26758 2.06445,-2.21875 2.14844,-2.20117 2.16602,-2.11523 2.2539,-2.09961 2.26758,-2.00977 2.35547,-1.99414 2.35352,-1.89453 2.40429,-1.84571 2.48243,-1.80859 2.52929,-1.75391 2.53516,-1.66796 2.56445,-1.60352 2.68945,-1.58984 2.69141,-1.50391 2.66211,-1.4043 2.82227,-1.40234 2.75976,-1.28711 2.82617,-1.23633 2.79493,-1.14258 2.93945,-1.11718 2.92773,-1.03125 2.95703,-0.95899 3.01563,-0.89843 2.99414,-0.8086 3.02148,-0.73633 3.08789,-0.67383 3.13086,-0.5996 3.125,-0.51758 3.15625,-0.44141 3.16797,-0.36328 3.26953,-0.28906 3.21289,-0.20508 3.22657,-0.12305 3.33398,-0.041 3.32813,0.041 3.23437,0.12305 3.20899,0.20508 3.26953,0.28906 3.16797,0.36328 3.14453,0.43945 3.13867,0.51954 3.11328,0.59765 3.08984,0.67188 3.03711,0.74218 2.98828,0.80665 3.03711,0.90429 2.96094,0.95899 2.90625,1.02539 2.93555,1.11718 2.82422,1.1543 2.80078,1.22461 2.75976,1.28711 2.83985,1.41211 0.0312,0.0156 0.008,0.004 0.30078,0.14844 0.0137,-0.0293 7.57813,2.89258 8.39453,1.0293 8.39648,-1.01172 7.90821,-2.99805 6.95898,-4.80664 5.60156,-6.33594 3.91993,-7.494135 2.00585,-8.214844 -0.0215,-8.457031 -2.04883,-8.205078 -3.95898,-7.472657 -5.63477,-6.30664 -6.75781,-4.652344 -0.44727,-0.236328 -0.37695,-0.199219 -0.38086,-0.189453 -3.51367,-1.746094 -0.38281,-0.189453 -0.38672,-0.18164 -3.5625,-1.66211 -0.38672,-0.18164 -0.39258,-0.171875 -3.60937,-1.578125 -0.39258,-0.171875 -0.39649,-0.16211 -3.65429,-1.492187 -0.39844,-0.164063 -0.40234,-0.152344 -3.69727,-1.40625 -0.40234,-0.152343 -0.40821,-0.142578 -3.74023,-1.31836 -0.4082,-0.144531 -0.41016,-0.132812 -3.7832,-1.228516 -0.41211,-0.132813 -0.41602,-0.125 -3.82226,-1.136718 -0.41602,-0.123047 -0.41992,-0.113282 -3.86133,-1.044921 -0.41992,-0.115235 -0.42383,-0.103515 -3.89844,-0.951172 -0.42578,-0.103516 -0.42578,-0.0918 -3.93555,-0.857422 -0.42773,-0.09375 -0.43164,-0.08203 -3.96875,-0.759765 -0.43164,-0.08203 -0.4336,-0.07227 -4.00195,-0.664063 -0.43555,-0.07227 -0.43554,-0.06055 -4.03516,-0.564454 -0.4375,-0.06055 -0.4375,-0.05078 -4.06836,-0.464843 -0.4375,-0.05078 -0.4414,-0.03906 -4.09571,-0.363281 -0.4414,-0.03906 -0.44141,-0.02734 -4.125,-0.261718 -0.44141,-0.02734 -0.44336,-0.01758 -4.15234,-0.158203 -0.44336,-0.01563 -0.4414,-0.0059 -4.17969,-0.05273 -0.44336,-0.0059 z"
       style="color:#000000;font-style:normal;font-variant:normal;font-weight:normal;font-stretch:normal;font-size:medium;line-height:normal;font-family:sans-serif;font-variant-ligatures:normal;font-variant-position:normal;font-variant-caps:normal;font-variant-numeric:normal;font-variant-alternates:normal;font-feature-settings:normal;text-indent:0;text-align:start;text-decoration:none;text-decoration-line:none;text-decoration-style:solid;text-decoration-color:#000000;letter-spacing:normal;word-spacing:normal;text-transform:none;writing-mode:lr-tb;direction:ltr;text-orientation:mixed;dominant-baseline:auto;baseline-shift:baseline;text-anchor:start;white-space:normal;shape-padding:0;clip-rule:nonzero;display:inline;overflow:visible;visibility:visible;opacity:1;isolation:auto;mix-blend-mode:normal;color-interpolation:sRGB;color-interpolation-filters:linearRGB;solid-color:#000000;solid-opacity:1;vector-effect:none;fill:#589787;fill-opacity:1;fill-rule:nonzero;stroke:none;stroke-width:70;stroke-linecap:round;stroke-linejoin:miter;stroke-miterlimit:4;stroke-dasharray:840, 840;stroke-dashoffset:0;stroke-opacity:1;color-rendering:auto;image-rendering:auto;shape-rendering:auto;text-rendering:auto;enable-background:accumulate" /><g
       transform="rotate(-127.17009,21.555262,6.9104126)"
       id="g5139"><path
         style="fill:#589787;fill-opacity:1;fill-rule:evenodd;stroke:#589787;stroke-width:70;stroke-linecap:round;stroke-linejoin:miter;stroke-miterlimit:4;stroke-dasharray:none;stroke-opacity:1"
         d="m -219.55799,110.08482 v 92.74976"
         id="path5120"
         inkscape:connector-curvature="0" /><path
         style="fill:#589787;fill-opacity:1;fill-rule:evenodd;stroke:#589787;stroke-width:70;stroke-linecap:round;stroke-linejoin:miter;stroke-miterlimit:4;stroke-dasharray:none;stroke-opacity:1"
         d="m -126.80823,202.83458 h -92.74976"
         id="path5120-7"
         inkscape:connector-curvature="0" /></g></g></svg>