<?xml version="1.0" encoding="UTF-8" standalone="no"?>
<!-- Generator: Adobe Illustrator 19.0.0, SVG Export Plug-In . SVG Version: 6.00 Build 0)  -->

<svg
   xmlns:osb="http://www.openswatchbook.org/uri/2009/osb"
   xmlns:dc="http://purl.org/dc/elements/1.1/"
   xmlns:cc="http://creativecommons.org/ns#"
   xmlns:rdf="http://www.w3.org/1999/02/22-rdf-syntax-ns#"
   xmlns:svg="http://www.w3.org/2000/svg"
   xmlns="http://www.w3.org/2000/svg"
   xmlns:sodipodi="http://sodipodi.sourceforge.net/DTD/sodipodi-0.dtd"
   xmlns:inkscape="http://www.inkscape.org/namespaces/inkscape"
   version="1.1"
   id="Capa_1"
   x="0px"
   y="0px"
   viewBox="0 0 512 512"
   xml:space="preserve"
   sodipodi:docname="level_custom.svg"
   inkscape:version="0.92.1 r15371"
   width="512"
   height="512"><metadata
     id="metadata77"><rdf:RDF><cc:Work
         rdf:about=""><dc:format>image/svg+xml</dc:format><dc:type
           rdf:resource="http://purl.org/dc/dcmitype/StillImage" /><dc:title></dc:title></cc:Work></rdf:RDF></metadata><defs
     id="defs75"><linearGradient
       id="linearGradient4883"
       osb:paint="solid"><stop
         style="stop-color:#000000;stop-opacity:1;"
         offset="0"
         id="stop4881" /></linearGradient></defs><sodipodi:namedview
     pagecolor="#ffffff"
     bordercolor="#666666"
     borderopacity="1"
     objecttolerance="10"
     gridtolerance="10"
     guidetolerance="10"
     inkscape:pageopacity="0"
     inkscape:pageshadow="2"
     inkscape:window-width="1920"
     inkscape:window-height="1048"
     id="namedview73"
     showgrid="false"
     inkscape:zoom="0.97035431"
     inkscape:cx="324.68812"
     inkscape:cy="274.70171"
     inkscape:window-x="1920"
     inkscape:window-y="0"
     inkscape:window-maximized="1"
     inkscape:current-layer="Capa_1"
     fit-margin-top="0"
     fit-margin-left="0"
     fit-margin-right="0"
     fit-margin-bottom="0" /><path
     style="opacity:0.99800002;fill:#9897ca;fill-opacity:1;stroke-width:1.33333337"
     d="M 28.44336,0 C 12.79936,0 0,12.799359 0,28.443359 V 483.55469 C 0,499.19869 12.79936,512 28.44336,512 H 483.55664 C 499.20064,512 512,499.20003 512,483.55469 V 28.443359 C 512,12.799359 499.20003,0 483.55469,0 Z M 72.888671,50 H 439.10938 C 451.69899,50 462,60.300132 462,72.888668 V 439.10938 C 462.00001,451.69899 451.69986,462 439.11133,462 H 72.888671 C 60.300141,462 50,451.69986 49.999999,439.11133 V 72.888668 C 49.999999,60.300132 60.300141,50 72.888671,50 Z"
     id="path36"
     inkscape:connector-curvature="0" /><g
     id="g42"
     transform="translate(159.5605,-4.207663)" /><g
     id="g44"
     transform="translate(159.5605,-4.207663)" /><g
     id="g46"
     transform="translate(159.5605,-4.207663)" /><g
     id="g48"
     transform="translate(159.5605,-4.207663)" /><g
     id="g50"
     transform="translate(159.5605,-4.207663)" /><g
     id="g52"
     transform="translate(159.5605,-4.207663)" /><g
     id="g54"
     transform="translate(159.5605,-4.207663)" /><g
     id="g56"
     transform="translate(159.5605,-4.207663)" /><g
     id="g58"
     transform="translate(159.5605,-4.207663)" /><g
     id="g60"
     transform="translate(159.5605,-4.207663)" /><g
     id="g62"
     transform="translate(159.5605,-4.207663)" /><g
     id="g64"
     transform="translate(159.5605,-4.207663)" /><g
     id="g66"
     transform="translate(159.5605,-4.207663)" /><g
     id="g68"
     transform="translate(159.5605,-4.207663)" /><g
     id="g70"
     transform="translate(159.5605,-4.207663)" /><path
     style="opacity:0.99800002;fill:#9897ca;fill-opacity:1;fill-rule:nonzero;stroke:none;stroke-width:1.37652755;stroke-opacity:1"
     d="M 256,156 A 100,100 0 0 0 156,256 100,100 0 0 0 256,356 100,100 0 0 0 356,256 100,100 0 0 0 256,156 Z m 0,50 a 50,50 0 0 1 50,50 50,50 0 0 1 -50,50 50,50 0 0 1 -50,-50 50,50 0 0 1 50,-50 z"
     id="path4826-2-1"
     inkscape:connector-curvature="0" /></svg>